<?xml version="1.0" encoding="utf-8"?>

<!DOCTYPE svg PUBLIC "-//W3C//DTD SVG 1.1//EN" "http://www.w3.org/Graphics/SVG/1.1/DTD/svg11.dtd">
<svg version="1.1" id="Layer_1" xmlns="http://www.w3.org/2000/svg" xmlns:xlink="http://www.w3.org/1999/xlink" x="0px" y="0px"
	 viewBox="0 0 2674 1359" style="enable-background:new 0 0 2674 1359;" xml:space="preserve">
<style type="text/css">
	.st0{fill:#FFFFFF;stroke:#FFFFFF;stroke-width:0.1158;}
	.st1{fill:#784421;stroke:#784421;stroke-width:0.1158;}
	.st2{fill:#CCCCCC;stroke:#CCCCCC;stroke-width:0.1158;}
	.st3{fill:#B3B3B3;}
	.st4{fill:#010101;}
	.st5{fill:#FFFFFF;}
	.st6{fill:#333333;}
	.st7{fill:none;stroke:#333333;stroke-width:0.1158;}
	.st8{fill:none;stroke:#FFFFFF;stroke-width:0.1158;}
	.st9{fill:none;stroke:#010101;stroke-width:0.1158;}
	.st10{fill:#F9F9F9;stroke:#F9F9F9;stroke-width:0.1158;}
	.st11{fill:#999999;stroke:#999999;stroke-width:0.1158;}
	.st12{fill:#B3B3B3;stroke:#B3B3B3;stroke-width:0.1158;}
	.st13{fill:#4E4E4E;stroke:#4E4E4E;stroke-width:0.1158;}
	.st14{fill:#4F4F4F;stroke:#4F4F4F;stroke-width:0.1158;}
</style>
<g>
	<g>
		<path class="st0" d="M2284.7,954.4c1.2-2.1,4-2,6.1-2.2c7.4-0.3,14.8,0.1,22.2-0.1c9.5-0.3,18.9,1.3,28.4,1.2
			c66.7-0.3,133.4,0.4,200.1,0.2c7.5,0.3,15.1-0.9,22.5,0.5c2.3,11.7-0.9,23.9,1.3,35.6c0.8,3,4.4,3,7,3.2c10.8,0.2,21.6,0,32.4-0.4
			c6,2.2,11,7.5,11.7,13.9c1,8.5,0.1,17.1,0.4,25.7c0,26.8,0,53.6,0,80.4c0.4,8.6-6.1,17.2-14.9,18.1c-11.7,1.1-23.6-0.9-35.2,0.9
			c-2.3,9.7-2.1,19.8-5.3,29.3c-4.9,17.5-15.6,32.7-27.7,45.9c11.3,3,23.1,3.6,34.5,6.4c9.9,2.3,20.1,4.9,28.5,10.9
			c3.4,2.1,3.7,7.2,0.7,9.8c-5.8,5.4-13.9,6.6-20.9,9.7c-10.3,1.1-20.2,4.2-30.4,5.4c-27.7,3.9-55.6,5.8-83.5,7
			c-10.6,1.2-21.2,0.3-31.8,1.4c-8.8,0.8-17.6-1.1-26.4-0.6c-10.8,0.4-21.4-1.2-32.2-1.3c-16.4-0.9-32.8-2-49.2-3.9
			c-14-1.3-28-2.9-41.7-6.3c-8.8-2.2-17.8-4.3-25.7-8.8c-2.6-1.7-6.1-4.1-5.4-7.7c0.5-3.8,4-6.1,7.1-7.7c10.7-5.5,22.7-7.7,34.3-10
			c8.2-1.7,16.6-1.8,24.5-4.6c-3.9-5.8-9.2-10.4-13.1-16.2c-8.5-12.2-14.5-26.2-17.1-40.9c-2.1-10.5-1.2-21.3-1.3-32
			c-0.2-16,0.6-32.1-1-48.1c-0.3-35.4,0.1-70.9-0.2-106.3C2283.6,960.1,2283.5,957.1,2284.7,954.4 M2399.8,1019
			c-1.8,2.6,0,5.7,1.1,8.3c5.5,10.6,15.9,17.3,24.5,25.2c5.6-2.5,11.5-4.1,17.6-4.8c-2.6-12.4-11.3-23.3-22.8-28.4
			C2413.7,1016.5,2406,1015.9,2399.8,1019 M2565.3,1018.8c-0.5,19.3-0.1,38.5-0.2,57.8c0.2,9.3-0.6,18.6,0.5,27.9
			c6.5,0.6,13.5,1.3,19.7-1.5c4.7-2.2,5.7-8.1,5.7-12.8c-0.1-19.8-0.1-39.6,0-59.4c0.5-5.5-3.3-11-8.8-12
			C2576.6,1018,2570.9,1018.5,2565.3,1018.8 M2391.5,1026.7c-4.5,7.7-3.2,17.3-0.5,25.4c7.9-1.2,16-1.5,24-0.3
			c-4.2-4.2-9-7.9-12.3-12.9c-3.3-4.4-5.1-9.6-8.3-14C2392.9,1024.8,2392,1025.4,2391.5,1026.7 M2427.3,1057.5
			c-4.6,3.1-9.1,7.4-10.2,13c-1.9,7.5,0.8,15.5,5.7,21.2c10.1,12.2,27.7,17.3,42.8,12.8c5.8-2.1,11.8-5.6,14.3-11.5
			c-8.2-2.1-16.9-1.7-24.7-5.3c-8.1-3.7-15.3-8.8-23.5-12.3c-2.4-1.3-5.9-1.9-6.4-5c7.4-1.1,14.5,2.1,20.9,5.4
			c8.4,4.6,16.9,10,26.6,11.2c3.3,0.2,7.8,1.5,10-1.9c0.7-4.3-0.8-8.7-2.6-12.6c-5.1-9.6-15-16.1-25.4-18.6
			C2445.5,1052.2,2435.3,1052.2,2427.3,1057.5 M2374.2,1068.6c-4.4,5-7.5,11.8-6.3,18.6c1.8,2.5,5.4,1.4,8,1.4
			c11.5-1.1,20.5-8.9,30.5-13.7c1.9-1.2,4.7-1.9,5.4-4.3c1.5-4.3,3.5-8.4,5.7-12.4C2402.8,1051.9,2384.8,1056.8,2374.2,1068.6
			 M2390.5,1089.9c-6.3,2.4-13.2,2.4-19.7,4.3c2.2,5.8,8.6,8.6,14.1,10.6c11.9,2.8,24.7-0.4,34.5-7.6c-2.8-6-6.9-11.5-8-18.2
			C2404.1,1081.8,2398.1,1087.4,2390.5,1089.9 M2299.2,1228.8c4.4,5.2,11.8,5.2,18,6.5c46.9,6.3,94.4,6,141.6,5.4
			c26-0.9,52.1-1.8,77.8-6c4.7-1.1,10.2-1.5,13.9-5c-0.2-3-3.8-3.3-6.1-4.2c-9-2.3-18.4-3.5-27.6-4.4c-4.2-0.6-8,1.4-11.6,3.2
			c-13.7,6.6-28.9,9.5-44,9.5c-24.3,0-48.6,0-72.8,0c-13.2,0-26.4-2.6-38.7-7.5c-5.5-2.1-10.7-6.3-17-5.1
			C2321.5,1222.9,2309.3,1222.9,2299.2,1228.8z"/>
		<path class="st1" d="M2399.8,1019c6.3-3.1,13.9-2.5,20.3,0.2c11.6,5.1,20.2,16.1,22.8,28.4c-6.1,0.7-12,2.2-17.6,4.8
			c-8.6-7.9-19-14.6-24.5-25.2C2399.7,1024.8,2397.9,1021.6,2399.8,1019z"/>
		<path class="st1" d="M2391.5,1026.7c0.5-1.3,1.4-1.9,2.8-1.8c3.3,4.4,5.1,9.6,8.3,14c3.4,5,8.1,8.7,12.3,12.9c-8-1.2-16-1-24,0.3
			C2388.3,1044,2387.1,1034.4,2391.5,1026.7z"/>
		<path class="st1" d="M2427.3,1057.5c8-5.2,18.3-5.3,27.4-3.5c10.4,2.5,20.3,9,25.4,18.6c1.9,3.9,3.3,8.3,2.6,12.6
			c-2.2,3.4-6.7,2.1-10,1.9c-9.8-1.2-18.2-6.6-26.6-11.2c-6.4-3.3-13.5-6.5-20.9-5.4c0.5,3.1,4,3.7,6.4,5
			c8.2,3.5,15.4,8.6,23.5,12.3c7.8,3.6,16.5,3.2,24.7,5.3c-2.5,6-8.5,9.5-14.3,11.5c-15.1,4.4-32.7-0.6-42.8-12.8
			c-4.9-5.8-7.5-13.7-5.7-21.2C2418.2,1064.8,2422.7,1060.6,2427.3,1057.5z"/>
		<path class="st1" d="M2374.2,1068.6c10.5-11.8,28.6-16.7,43.3-10.5c-2.2,4-4.2,8.1-5.7,12.4c-0.7,2.4-3.5,3.1-5.4,4.3
			c-10,4.9-19,12.7-30.5,13.7c-2.7,0-6.2,1.1-8-1.4C2366.8,1080.4,2369.9,1073.6,2374.2,1068.6z"/>
		<path class="st1" d="M2390.5,1089.9c7.6-2.5,13.5-8,20.9-11c1.1,6.7,5.2,12.2,8,18.2c-9.7,7.3-22.6,10.4-34.5,7.6
			c-5.5-1.9-11.9-4.7-14.1-10.6C2377.3,1092.3,2384.2,1092.3,2390.5,1089.9z"/>
		<path class="st2" d="M2299.2,1228.8c10.1-6,22.3-5.9,33.6-7.5c6.2-1.2,11.5,3,17,5.1c12.2,4.9,25.4,7.5,38.7,7.5
			c24.3,0,48.6,0,72.8,0c15.1,0,30.4-2.9,44-9.5c3.6-1.8,7.4-3.8,11.6-3.2c9.3,0.9,18.6,2.1,27.6,4.4c2.2,0.9,5.8,1.2,6.1,4.2
			c-3.7,3.5-9.2,3.9-13.9,5c-25.7,4.2-51.8,5.1-77.8,6c-47.2,0.6-94.7,0.9-141.6-5.4C2311.1,1234,2303.6,1234,2299.2,1228.8z"/>
	</g>
	<g>
		<path class="st3" d="M1938.7,146.5c0,163.7,0.1,327.5,0.1,491.2c0,32.7,0,65.4,0,98.1c0,131,0,262.1-0.1,393.1
			c-126.8,0.4-253.6,0-380.4,0.2c-347.5,0-695.1,0-1042.6,0c-88.5-0.1-177,0.2-265.5-0.2c-0.1-327.5,0-654.9,0-982.4
			c281.4,0,562.9-0.1,844.3-0.1C1375.9,146.5,1657.3,146.5,1938.7,146.5z"/>
		<path class="st4" d="M1093.9,112.2c-3.2-0.3-3.9-5.2-1-6.6c2-1,4.9,0.2,5.1,2.6C1098.5,110.5,1096.2,112.8,1093.9,112.2z"/>
		<path class="st5" d="M1090.6,100c1.2-0.6,2.5-0.9,3.8-0.9c5.3,0,10.5,4.8,9.8,10.4c-0.1,5-4.9,9.1-9.6,9.1c-1.3,0-2.7-0.3-3.9-1
			C1083,114.9,1083.1,102.8,1090.6,100z M1092.9,105.7c-2.9,1.4-2.2,6.3,1,6.6c2.3,0.6,4.5-1.7,4-4
			C1097.7,105.9,1094.9,104.7,1092.9,105.7z"/>
		<path class="st6" d="M1979,956c0-73.4-0.1-146.8-0.1-220.2v-98.1c0-84,0-168,0-251.9c0-87.6,0-175.2,0-262.8
			c0.2-19.2-11.3-37.8-28.5-46.2c-7.4-3.8-15.7-5.6-23.9-5.6c-10.3,0-20.5,0-30.7,0c-267.1,0-534.3,0-801.4,0
			c-105.2,0-210.5,0-315.7,0c-95.5,0-191,0-286.5,0c-76.6,0-153.1,0-229.7,0c-9.9-0.1-19.7,2.8-28.2,7.9
			c-14.7,9.5-24.3,26.4-24.1,44v23.5c0,302.2,0,604.4,0,906.6c0.1,49.7-0.2,99.5,0.1,149.2c122.4-0.3,244.8,0,367.3-0.1
			c137.9-0.1,275.7,0.1,413.6-0.1c10.4-0.4,20.8-0.1,31.1-0.2c58.6,0.1,117.1-0.3,175.7,0.2c260.4,0.3,520.8-0.1,781.2,0.2
			C1978.8,1120.2,1979,1038.1,1979,956z M1938.8,735.8c0,131,0,262.1-0.1,393.1c-126.8,0.4-253.6,0-380.4,0.2H515.7
			c-88.5-0.1-177,0.2-265.5-0.2c-0.1-327.5,0-654.9,0-982.4c281.4,0,562.9-0.1,844.3-0.1c281.4,0,562.8,0,844.2,0
			c0,163.7,0.1,327.5,0.1,491.2V735.8z"/>
		<g>
			<path class="st7" d="M234.2,79c8.5-5.1,18.3-8,28.2-7.9c76.6,0,153.1,0,229.7,0c95.5,0,191,0,286.5,0c105.2,0,210.5,0,315.7,0
				c267.1,0,534.2,0,801.4,0c10.2,0,20.5,0,30.7,0c8.3,0,16.6,1.8,23.9,5.6c17.2,8.5,28.7,27.1,28.5,46.2c0.1,87.6,0,175.2,0,262.8
				c0,84,0,168,0,251.9c0,32.7,0,65.4,0,98.1c0,73.4,0,146.8,0.1,220.2c0,82.1-0.2,164.2,0.1,246.3c-260.4-0.3-520.8,0.1-781.2-0.2
				c-58.6-0.5-117.1-0.1-175.7-0.2c-10.4,0.1-20.8-0.2-31.1,0.2c-137.9,0.3-275.7,0-413.6,0.1c-122.4,0.1-244.8-0.2-367.3,0.1
				c-0.3-49.7,0-99.5-0.1-149.2c0-302.2,0-604.4,0-906.6c0-7.8,0-15.7,0-23.5C209.9,105.4,219.6,88.5,234.2,79"/>
			<path class="st7" d="M250.2,146.5c0,327.5,0,654.9,0,982.4c88.5,0.4,177,0.1,265.5,0.2c347.5,0,695.1,0,1042.6,0
				c126.8-0.1,253.6,0.2,380.4-0.2c0-131,0-262.1,0.1-393.1c0-32.7,0-65.4,0-98.1c0-163.7,0-327.5-0.1-491.2
				c-281.4,0-562.8,0-844.2,0C813.1,146.5,531.7,146.5,250.2,146.5z"/>
			<path class="st8" d="M1090.6,100c1.2-0.6,2.5-0.9,3.8-0.9c5.3,0,10.5,4.8,9.8,10.4c-0.1,5-4.9,9.1-9.6,9.1c-1.3,0-2.7-0.3-3.9-1
				C1083,114.9,1083.1,102.8,1090.6,100"/>
			<path class="st9" d="M1092.9,105.7c2-1,4.9,0.2,5.1,2.6c0.5,2.2-1.8,4.5-4,4C1090.7,112,1090,107,1092.9,105.7z"/>
		</g>
		<path class="st10" d="M57.9,1203.1c10.1-1,20.3-0.3,30.4-0.5c40.6-0.2,81.3,0.4,121.9-0.3c122.4-0.3,244.8,0,367.3-0.1
			c137.9-0.1,275.7,0.1,413.6-0.1c-0.1,5.9-1.6,13,2.8,17.9c2.7,3.2,7.1,3.8,11,3.8c59.8-0.1,119.5-0.1,179.3,0
			c4.2,0,9-0.7,11.6-4.4c3.6-5,2.3-11.6,2.2-17.3c260.4,0.3,520.8-0.1,781.2,0.2c34.7,0.9,69.5-0.2,104.2,0.5
			c15.5,2,31.1,0.4,46.7,1.3c0.6,8.2,0.3,16.3-0.1,24.5c-0.4,3.1,0.8,5.9,2.5,8.5c-6.7-2.3-13.8-1.5-20.7-1.5
			c-678.2,0-1356.3,0-2034.5,0c-6.7,0-13.7-0.9-20.2,1.5C58.5,1225.8,56.5,1214.4,57.9,1203.1 M134.3,1212.9c-2.3,2.7-1.9,6.3-2,9.6
			c2.2,3,5,6.4,9.2,6.2c4,0.5,7.2-2.2,9.3-5.3l0.7-0.2c-0.3-3.4,0.2-7.3-2-10.2C146,1208.3,137.9,1208.2,134.3,1212.9 M193.3,1212.6
			c-2.9,2.7-2.4,7-2.6,10.6l0.7,0.2c3.4,6.6,13.2,7.2,17.3,1l0.8-0.1c0.1-3.6,1-7.6-1.2-10.7
			C205.1,1208.6,197.1,1207.9,193.3,1212.6z"/>
		<path class="st11" d="M991.1,1202.1c10.4-0.4,20.8-0.1,31.1-0.2c58.6,0.1,117.1-0.3,175.7,0.2c0.1,5.7,1.5,12.3-2.2,17.3
			c-2.6,3.7-7.4,4.4-11.6,4.4c-59.8-0.1-119.5-0.1-179.3,0c-3.9,0-8.3-0.6-11-3.8C989.5,1215.1,991,1208,991.1,1202.1z"/>
		<path class="st12" d="M134.3,1212.9c3.6-4.8,11.6-4.7,15.2,0.1c2.3,2.9,1.8,6.7,2,10.2l-0.7,0.2c-3.1,0.7-6.2,1.7-9.4,1.8
			c-3.2-0.2-6.1-1.6-9.1-2.6C132.4,1219.2,132.1,1215.6,134.3,1212.9z"/>
		<path class="st12" d="M193.3,1212.6c3.8-4.7,11.8-4,15.1,1c2.2,3.1,1.3,7.1,1.2,10.7l-0.8,0.1c-5.8,0.8-11.7,0.8-17.3-1l-0.7-0.2
			C190.9,1219.5,190.4,1215.3,193.3,1212.6z"/>
		<path class="st13" d="M132.3,1222.5c3,1,5.9,2.5,9.1,2.6c3.2-0.1,6.3-1.1,9.4-1.8c-2.1,3-5.3,5.8-9.3,5.3
			C137.3,1228.9,134.5,1225.5,132.3,1222.5z"/>
		<path class="st14" d="M191.4,1223.3c5.6,1.8,11.5,1.7,17.3,1C204.7,1230.5,194.9,1229.9,191.4,1223.3z"/>
		<path class="st12" d="M57,1237.1c6.5-2.3,13.5-1.4,20.2-1.5c678.2,0,1356.3,0,2034.5,0c6.9,0,14-0.8,20.7,1.5
			c-1.5,8.7-7.6,16.1-16,18.9c-122.2,0.4-244.4,0-366.6,0.2c-527.1,0-1054.1,0-1581.2,0c-32-0.1-64.1,0.3-96.1-0.2
			C64.4,1253.1,57.6,1245.9,57,1237.1z"/>
	</g>
</g>
</svg>
